<svg width="76" height="118" viewBox="0 0 76 118" fill="none" xmlns="http://www.w3.org/2000/svg">
<path d="M71.0337 22.202C71.0332 20.9534 70.7661 19.85 70.2261 18.9033C69.6956 17.9718 68.9011 17.1913 67.8355 16.5742C59.0392 11.5022 50.2344 6.44576 41.4409 1.3686C39.0703 -2.96533e-05 36.7717 0.0501242 34.4186 1.4384C30.9174 3.50298 13.3882 13.5459 8.16472 16.5714C6.01353 17.817 4.96677 19.7228 4.96625 22.1997C4.96289 32.3998 4.96625 42.5999 4.96289 52.8C4.96289 54.0212 5.21909 55.1034 5.73536 56.0359C6.26611 56.9953 7.07167 57.7972 8.16187 58.4283C13.3856 61.4538 30.9172 71.4959 34.4176 73.5613C36.7717 74.9503 39.0703 75 41.4417 73.6311C50.2354 68.5537 59.0408 63.4972 67.8384 58.4252C68.9286 57.7944 69.7341 56.9919 70.2649 56.0333C70.7804 55.1006 71.0371 54.0186 71.0371 52.7971C71.0371 52.7971 71.0371 32.4024 71.0337 22.202Z" fill="#A179DC"/>
<path d="M38.1011 37.4005L5.73535 56.0359C6.2661 56.9953 7.07166 57.7973 8.16186 58.4283C13.3856 61.4538 30.9172 71.4959 34.4176 73.5613C36.7717 74.9503 39.0703 75 41.4417 73.6311C50.2354 68.5537 59.0408 63.4972 67.8383 58.4252C68.9285 57.7944 69.7341 56.992 70.2649 56.0333L38.1011 37.4005Z" fill="#280068"/>
<path d="M71.0337 22.2021C71.0332 20.9534 70.7662 19.85 70.2261 18.9033L38.1011 37.4007L70.2649 56.0333C70.7804 55.1006 71.0366 54.0187 71.0371 52.7971C71.0371 52.7971 71.0371 32.4024 71.0337 22.2021Z" fill="#390091"/>
<path d="M57.1569 30.434V33.9174H60.6403V30.434H62.3819V33.9174H65.8653V35.6591H62.3819V39.1422H65.8653V40.8838H62.3819V44.3672H60.6403V40.8838H57.1569V44.3672H55.4152V40.8838H51.9321V39.1422H55.4152V35.6591H51.9321V33.9174H55.4152V30.434H57.1569ZM60.6403 35.6588H57.1569V39.1422H60.6403V35.6588Z" fill="white"/>
<path d="M38.1721 12.9402C47.2577 12.9402 55.19 17.8744 59.4389 25.2087L59.3975 25.1381L48.7075 31.2931C46.6016 27.7273 42.7408 25.3207 38.3115 25.271L38.1719 25.2702C31.4179 25.2702 25.9424 30.7458 25.9424 37.4997C25.9402 39.6285 26.4963 41.7206 27.5553 43.5673C29.6633 47.2474 33.6262 49.7295 38.1721 49.7295C42.7462 49.7295 46.7316 47.2159 48.8288 43.4965L48.7778 43.5857L59.4515 49.7691C55.2492 57.0413 47.4255 61.9603 38.4457 62.0583L38.1721 62.0598C29.0579 62.0598 21.1031 57.0951 16.8648 49.722C14.7958 46.1226 13.6121 41.9497 13.6121 37.4997C13.6121 23.936 24.6079 12.9402 38.1721 12.9402Z" fill="white"/>
<path d="M25.525 106.75C25.525 105.72 25.755 104.8 26.215 103.99C26.685 103.17 27.32 102.535 28.12 102.085C28.93 101.625 29.835 101.395 30.835 101.395C32.005 101.395 33.03 101.695 33.91 102.295C34.79 102.895 35.405 103.725 35.755 104.785H33.34C33.1 104.285 32.76 103.91 32.32 103.66C31.89 103.41 31.39 103.285 30.82 103.285C30.21 103.285 29.665 103.43 29.185 103.72C28.715 104 28.345 104.4 28.075 104.92C27.815 105.44 27.685 106.05 27.685 106.75C27.685 107.44 27.815 108.05 28.075 108.58C28.345 109.1 28.715 109.505 29.185 109.795C29.665 110.075 30.21 110.215 30.82 110.215C31.39 110.215 31.89 110.09 32.32 109.84C32.76 109.58 33.1 109.2 33.34 108.7H35.755C35.405 109.77 34.79 110.605 33.91 111.205C33.04 111.795 32.015 112.09 30.835 112.09C29.835 112.09 28.93 111.865 28.12 111.415C27.32 110.955 26.685 110.32 26.215 109.51C25.755 108.7 25.525 107.78 25.525 106.75ZM47.3737 105.265L46.8787 107.575H48.7837V109.45H46.4737L45.9337 112H43.9387L44.4787 109.45H41.7487L41.2087 112H39.2287L39.7687 109.45H37.5037V107.575H40.1737L40.6687 105.265H38.4187V103.39H41.0737L41.5987 100.9H43.5787L43.0537 103.39H45.7837L46.3087 100.9H48.3037L47.7787 103.39H49.6987V105.265H47.3737ZM45.3787 105.265H42.6487L42.1537 107.575H44.8837L45.3787 105.265Z" fill="black"/>
</svg>
