<svg width="76" height="118" viewBox="0 0 76 118" fill="none" xmlns="http://www.w3.org/2000/svg">
<mask id="mask0_1_177" style="mask-type:luminance" maskUnits="userSpaceOnUse" x="7" y="0" width="62" height="75">
<path d="M68.0969 34.608L47.9083 54.8037L68.0969 74.9995H45.0274L24.8316 54.8037L45.0274 34.608H68.0969ZM45.0274 6.10352e-05L7.53125 37.4962L19.0696 49.0345L68.0969 6.10352e-05H45.0274Z" fill="white"/>
</mask>
<g mask="url(#mask0_1_177)">
<path d="M24.8389 54.8037L36.37 66.3421L68.0969 34.608H45.0274L24.8389 54.8037Z" fill="#39CEFD"/>
</g>
<mask id="mask1_1_177" style="mask-type:luminance" maskUnits="userSpaceOnUse" x="7" y="0" width="62" height="75">
<path d="M68.0969 34.608L47.9083 54.8037L68.0969 74.9995H45.0274L24.8316 54.8037L45.0274 34.608H68.0969ZM45.0274 6.10352e-05L7.53125 37.4962L19.0696 49.0345L68.0969 6.10352e-05H45.0274Z" fill="white"/>
</mask>
<g mask="url(#mask1_1_177)">
<path d="M45.0274 6.10352e-05H68.0969L19.0696 49.0345L7.53125 37.4962L45.0274 6.10352e-05Z" fill="#39CEFD"/>
</g>
<mask id="mask2_1_177" style="mask-type:luminance" maskUnits="userSpaceOnUse" x="7" y="0" width="62" height="75">
<path d="M68.0969 34.608L47.9083 54.8037L68.0969 74.9995H45.0274L24.8316 54.8037L45.0274 34.608H68.0969ZM45.0274 6.10352e-05L7.53125 37.4962L19.0696 49.0345L68.0969 6.10352e-05H45.0274Z" fill="white"/>
</mask>
<g mask="url(#mask2_1_177)">
<path d="M36.3699 66.3421L45.0273 74.9923H68.0968L47.9082 54.8037L36.3699 66.3421Z" fill="#03569B"/>
</g>
<mask id="mask3_1_177" style="mask-type:luminance" maskUnits="userSpaceOnUse" x="7" y="0" width="62" height="75">
<path d="M68.0969 34.608L47.9083 54.8037L68.0969 74.9995H45.0274L24.8316 54.8037L45.0274 34.608H68.0969ZM45.0274 6.10352e-05L7.53125 37.4962L19.0696 49.0345L68.0969 6.10352e-05H45.0274Z" fill="white"/>
</mask>
<g mask="url(#mask3_1_177)">
<path d="M53.4825 60.414L47.9082 54.8037L36.3699 66.3421L53.4825 60.414Z" fill="url(#paint0_linear_1_177)"/>
</g>
<mask id="mask4_1_177" style="mask-type:luminance" maskUnits="userSpaceOnUse" x="7" y="0" width="62" height="75">
<path d="M68.0969 34.608L47.9083 54.8037L68.0969 74.9995H45.0274L24.8316 54.8037L45.0274 34.608H68.0969ZM45.0274 6.10352e-05L7.53125 37.4962L19.0696 49.0345L68.0969 6.10352e-05H45.0274Z" fill="white"/>
</mask>
<g mask="url(#mask4_1_177)">
<path d="M24.8374 54.7997L36.3761 43.261L47.9154 54.7997L36.3761 66.3385L24.8374 54.7997Z" fill="#16B9FD"/>
</g>
<path d="M68.0969 34.608L47.9083 54.8037L68.0969 74.9995H45.0274L24.8316 54.8037L45.0274 34.608H68.0969ZM45.0274 6.10352e-05L7.53125 37.4962L19.0696 49.0345L68.0969 6.10352e-05H45.0274Z" fill="url(#paint1_radial_1_177)"/>
<path d="M19 101.53V103.225H14.635V105.91H17.98V107.575H14.635V112H12.535V101.53H19ZM23.1891 100.9V112H21.0891V100.9H23.1891ZM33.7089 103.69V112H31.5939V110.95C31.3239 111.31 30.9689 111.595 30.5289 111.805C30.0989 112.005 29.6289 112.105 29.1189 112.105C28.4689 112.105 27.8939 111.97 27.3939 111.7C26.8939 111.42 26.4989 111.015 26.2089 110.485C25.9289 109.945 25.7889 109.305 25.7889 108.565V103.69H27.8889V108.265C27.8889 108.925 28.0539 109.435 28.3839 109.795C28.7139 110.145 29.1639 110.32 29.7339 110.32C30.3139 110.32 30.7689 110.145 31.0989 109.795C31.4289 109.435 31.5939 108.925 31.5939 108.265V103.69H33.7089ZM38.8259 105.415V109.435C38.8259 109.715 38.8909 109.92 39.0209 110.05C39.1609 110.17 39.3909 110.23 39.7109 110.23H40.6859V112H39.3659C37.5959 112 36.7109 111.14 36.7109 109.42V105.415H35.7209V103.69H36.7109V101.635H38.8259V103.69H40.6859V105.415H38.8259ZM45.2413 105.415V109.435C45.2413 109.715 45.3063 109.92 45.4363 110.05C45.5763 110.17 45.8063 110.23 46.1263 110.23H47.1013V112H45.7813C44.0113 112 43.1263 111.14 43.1263 109.42V105.415H42.1363V103.69H43.1263V101.635H45.2413V103.69H47.1013V105.415H45.2413ZM56.9368 107.665C56.9368 107.965 56.9168 108.235 56.8768 108.475H50.8018C50.8518 109.075 51.0618 109.545 51.4318 109.885C51.8018 110.225 52.2568 110.395 52.7968 110.395C53.5768 110.395 54.1318 110.06 54.4618 109.39H56.7268C56.4868 110.19 56.0268 110.85 55.3468 111.37C54.6668 111.88 53.8318 112.135 52.8418 112.135C52.0418 112.135 51.3218 111.96 50.6818 111.61C50.0518 111.25 49.5568 110.745 49.1968 110.095C48.8468 109.445 48.6718 108.695 48.6718 107.845C48.6718 106.985 48.8468 106.23 49.1968 105.58C49.5468 104.93 50.0368 104.43 50.6668 104.08C51.2968 103.73 52.0218 103.555 52.8418 103.555C53.6318 103.555 54.3368 103.725 54.9568 104.065C55.5868 104.405 56.0718 104.89 56.4118 105.52C56.7618 106.14 56.9368 106.855 56.9368 107.665ZM54.7618 107.065C54.7518 106.525 54.5568 106.095 54.1768 105.775C53.7968 105.445 53.3318 105.28 52.7818 105.28C52.2618 105.28 51.8218 105.44 51.4618 105.76C51.1118 106.07 50.8968 106.505 50.8168 107.065H54.7618ZM61.1696 104.98C61.4396 104.54 61.7896 104.195 62.2196 103.945C62.6596 103.695 63.1596 103.57 63.7196 103.57V105.775H63.1646C62.5046 105.775 62.0046 105.93 61.6646 106.24C61.3346 106.55 61.1696 107.09 61.1696 107.86V112H59.0696V103.69H61.1696V104.98Z" fill="black"/>
<defs>
<linearGradient id="paint0_linear_1_177" x1="39.7372" y1="68.5688" x2="48.3306" y2="59.9753" gradientUnits="userSpaceOnUse">
<stop stop-color="#1A237E" stop-opacity="0.4"/>
<stop offset="1" stop-color="#1A237E" stop-opacity="0"/>
</linearGradient>
<radialGradient id="paint1_radial_1_177" cx="0" cy="0" r="1" gradientUnits="userSpaceOnUse" gradientTransform="translate(9.23274 5.1118) scale(91.7526 91.7526)">
<stop stop-color="white" stop-opacity="0.1"/>
<stop offset="1" stop-color="white" stop-opacity="0"/>
</radialGradient>
</defs>
</svg>
