<svg width="76" height="118" viewBox="0 0 76 118" fill="none" xmlns="http://www.w3.org/2000/svg">
<path fill-rule="evenodd" clip-rule="evenodd" d="M31.1711 39.7829C31.1711 39.7829 29.2068 40.9259 32.5704 41.312C36.6465 41.7774 38.7285 41.7105 43.2189 40.861C43.2189 40.861 44.4011 41.6012 46.0513 42.2416C35.9823 46.5562 23.2634 41.992 31.1711 39.7829ZM29.9402 34.1526C29.9402 34.1526 27.7366 35.7836 31.1032 36.1318C35.4575 36.5814 38.8945 36.6181 44.8456 35.473C44.8456 35.473 45.6673 36.3071 46.9605 36.7628C34.7881 40.323 21.2313 37.0431 29.9402 34.1526Z" fill="#3174B9"/>
<path fill-rule="evenodd" clip-rule="evenodd" d="M40.3119 24.6006C42.7941 27.4578 39.6613 30.0274 39.6613 30.0274C39.6613 30.0274 45.961 26.776 43.0675 22.7029C40.3661 18.9063 38.2939 17.0201 49.5106 10.5156C49.5106 10.5156 31.9033 14.9113 40.3119 24.6006Z" fill="#CA3132"/>
<path fill-rule="evenodd" clip-rule="evenodd" d="M53.6285 43.9478C53.6285 43.9478 55.0825 45.1466 52.0269 46.0737C46.2166 47.8336 27.8392 48.3643 22.7345 46.1437C20.9008 45.345 24.3412 44.2379 25.4236 44.0041C26.5524 43.7601 27.1967 43.8044 27.1967 43.8044C25.156 42.3675 14.0067 46.6266 21.5343 47.8485C42.0607 51.1767 58.9521 46.3502 53.6285 43.9478ZM32.1162 28.3184C32.1162 28.3184 22.7694 30.539 28.8068 31.3462C31.3568 31.6871 36.4363 31.6086 41.1716 31.2114C45.0403 30.8867 48.9236 30.1921 48.9236 30.1921C48.9236 30.1921 47.5605 30.7771 46.5728 31.4503C37.0797 33.9474 18.7437 32.7844 24.0229 30.2318C28.4864 28.0726 32.1162 28.3184 32.1162 28.3184ZM48.8847 37.6903C58.534 32.6773 54.0726 27.8589 50.9578 28.5082C50.1962 28.6673 49.8545 28.8047 49.8545 28.8047C49.8545 28.8047 50.1386 28.3602 50.6788 28.169C56.8398 26.0039 61.5772 34.5566 48.6923 37.9437C48.6919 37.9437 48.8404 37.8098 48.8847 37.6903Z" fill="#3174B9"/>
<path fill-rule="evenodd" clip-rule="evenodd" d="M43.0676 0.00970459C43.0676 0.00970459 48.4104 5.35589 37.9987 13.5742C29.649 20.1692 36.0951 23.9283 37.9962 28.2249C33.1214 23.8276 29.5458 19.9558 31.9443 16.3533C35.4658 11.0651 45.2234 8.50063 43.0676 0.00970459Z" fill="#CA3132"/>
<path fill-rule="evenodd" clip-rule="evenodd" d="M33.0654 51.2787C42.3259 51.8708 56.5496 50.9497 56.8871 46.5669C56.8871 46.5669 56.2394 48.2282 49.2328 49.5461C41.3276 51.0342 31.576 50.861 25.7942 49.9066C25.7942 49.9066 26.979 50.887 33.0654 51.2787Z" fill="#3174B9"/>
<path fill-rule="evenodd" clip-rule="evenodd" d="M56.4592 59.1382H56.1776V58.9803H56.9375V59.1382H56.6559V59.9266H56.4592V59.1382ZM57.9755 59.1774H57.9721L57.6922 59.9262H57.5638L57.2856 59.1774H57.2822V59.9262H57.0953V58.9799H57.3697L57.6273 59.6493L57.885 58.9799H58.1568V59.9262H57.9759L57.9755 59.1774ZM31.5479 68.0229C30.6746 68.7798 29.7513 69.2055 28.9224 69.2055C27.7414 69.2055 27.1006 68.496 27.1006 67.3608C27.1006 66.1316 27.7866 65.2323 30.5325 65.2323H31.5475L31.5479 68.0229ZM33.9584 70.7423V62.3239C33.9584 60.1724 32.7314 58.7525 29.7735 58.7525C28.0477 58.7525 26.5349 59.1787 25.3049 59.7218L25.659 61.2129C26.6279 60.8571 27.8805 60.5273 29.1101 60.5273C30.8141 60.5273 31.5475 61.2129 31.5475 62.6323V63.6968H30.6959C26.5567 63.6968 24.6888 65.3027 24.6888 67.717C24.6888 69.7973 25.9197 70.9799 28.2367 70.9799C29.7261 70.9799 30.8388 70.3651 31.8777 69.4654L32.0667 70.7423H33.9584ZM42.0035 70.7423H38.9978L35.3787 58.9667H38.0042L40.2504 66.2029L40.7504 68.377C41.8836 65.2323 42.6878 62.0397 43.0901 58.9667H45.6431C44.9596 62.844 43.7284 67.1009 42.0035 70.7423ZM53.5385 68.0229C52.6626 68.7798 51.7393 69.2055 50.9121 69.2055C49.7311 69.2055 49.0912 68.496 49.0912 67.3608C49.0912 66.1316 49.7776 65.2323 52.5218 65.2323H53.5385V68.0229ZM55.9498 70.7423V62.3239C55.9498 60.1724 54.719 58.7525 51.7641 58.7525C50.0366 58.7525 48.5242 59.1787 47.2942 59.7218L47.6483 61.2129C48.6172 60.8571 49.8724 60.5273 51.1024 60.5273C52.8038 60.5273 53.538 61.2129 53.538 62.6323V63.6968H52.6865C48.5468 63.6968 46.6803 65.3027 46.6803 67.717C46.6803 69.7973 47.9086 70.9799 50.226 70.9799C51.7167 70.9799 52.8277 70.3651 53.8691 69.4654L54.0589 70.7423H55.9498ZM22.0458 72.7432C21.3589 73.7471 20.248 74.5419 19.0333 74.9903L17.843 73.5884C18.7684 73.1135 19.5611 72.3469 19.9301 71.6335C20.248 70.9978 20.3807 70.1804 20.3807 68.2238V54.7784H22.9426V68.0383C22.9426 70.6553 22.7336 71.7129 22.0458 72.7432Z" fill="#CA3132"/>
<path d="M25.14 101.53V108.88C25.14 109.9 24.845 110.695 24.255 111.265C23.665 111.825 22.875 112.105 21.885 112.105C20.885 112.105 20.075 111.815 19.455 111.235C18.845 110.655 18.54 109.845 18.54 108.805H20.64C20.65 109.255 20.755 109.605 20.955 109.855C21.165 110.105 21.465 110.23 21.855 110.23C22.235 110.23 22.525 110.11 22.725 109.87C22.925 109.63 23.025 109.3 23.025 108.88V101.53H25.14ZM27.6497 107.815C27.6497 106.975 27.8147 106.23 28.1447 105.58C28.4847 104.93 28.9397 104.43 29.5097 104.08C30.0897 103.73 30.7347 103.555 31.4447 103.555C32.0647 103.555 32.6047 103.68 33.0647 103.93C33.5347 104.18 33.9097 104.495 34.1897 104.875V103.69H36.3047V112H34.1897V110.785C33.9197 111.175 33.5447 111.5 33.0647 111.76C32.5947 112.01 32.0497 112.135 31.4297 112.135C30.7297 112.135 30.0897 111.955 29.5097 111.595C28.9397 111.235 28.4847 110.73 28.1447 110.08C27.8147 109.42 27.6497 108.665 27.6497 107.815ZM34.1897 107.845C34.1897 107.335 34.0897 106.9 33.8897 106.54C33.6897 106.17 33.4197 105.89 33.0797 105.7C32.7397 105.5 32.3747 105.4 31.9847 105.4C31.5947 105.4 31.2347 105.495 30.9047 105.685C30.5747 105.875 30.3047 106.155 30.0947 106.525C29.8947 106.885 29.7947 107.315 29.7947 107.815C29.7947 108.315 29.8947 108.755 30.0947 109.135C30.3047 109.505 30.5747 109.79 30.9047 109.99C31.2447 110.19 31.6047 110.29 31.9847 110.29C32.3747 110.29 32.7397 110.195 33.0797 110.005C33.4197 109.805 33.6897 109.525 33.8897 109.165C34.0897 108.795 34.1897 108.355 34.1897 107.845ZM42.4207 110.065L44.5207 103.69H46.7557L43.6807 112H41.1307L38.0707 103.69H40.3207L42.4207 110.065ZM47.9952 107.815C47.9952 106.975 48.1602 106.23 48.4902 105.58C48.8302 104.93 49.2852 104.43 49.8552 104.08C50.4352 103.73 51.0802 103.555 51.7902 103.555C52.4102 103.555 52.9502 103.68 53.4102 103.93C53.8802 104.18 54.2552 104.495 54.5352 104.875V103.69H56.6502V112H54.5352V110.785C54.2652 111.175 53.8902 111.5 53.4102 111.76C52.9402 112.01 52.3952 112.135 51.7752 112.135C51.0752 112.135 50.4352 111.955 49.8552 111.595C49.2852 111.235 48.8302 110.73 48.4902 110.08C48.1602 109.42 47.9952 108.665 47.9952 107.815ZM54.5352 107.845C54.5352 107.335 54.4352 106.9 54.2352 106.54C54.0352 106.17 53.7652 105.89 53.4252 105.7C53.0852 105.5 52.7202 105.4 52.3302 105.4C51.9402 105.4 51.5802 105.495 51.2502 105.685C50.9202 105.875 50.6502 106.155 50.4402 106.525C50.2402 106.885 50.1402 107.315 50.1402 107.815C50.1402 108.315 50.2402 108.755 50.4402 109.135C50.6502 109.505 50.9202 109.79 51.2502 109.99C51.5902 110.19 51.9502 110.29 52.3302 110.29C52.7202 110.29 53.0852 110.195 53.4252 110.005C53.7652 109.805 54.0352 109.525 54.2352 109.165C54.4352 108.795 54.5352 108.355 54.5352 107.845Z" fill="black"/>
</svg>
