<svg width="76" height="118" viewBox="0 0 76 118" fill="none" xmlns="http://www.w3.org/2000/svg">
<g clip-path="url(#clip0_1_205)">
<path d="M37.5611 0.000609484C34.5046 0.0147302 31.5858 0.273912 29.0175 0.725772C21.4517 2.05477 20.078 4.83648 20.078 9.96641V16.7415H37.957V18.9999H20.078H13.3682C8.17208 18.9999 3.62221 22.1052 2.19907 28.0126C0.557488 34.7839 0.484675 39.0092 2.19907 46.0795C3.46997 51.3423 6.50505 55.0922 11.7012 55.0922H17.8484V46.9704C17.8484 41.1029 22.9543 35.9272 29.0175 35.9272H46.8756C51.8467 35.9272 55.8151 31.8576 55.8151 26.8938V9.96641C55.8151 5.14879 51.7276 1.52981 46.8756 0.725772C43.8043 0.217429 40.6175 -0.0135114 37.5611 0.000609484ZM27.8923 5.44969C29.739 5.44969 31.2472 6.9737 31.2472 8.84759C31.2472 10.7148 29.739 12.2248 27.8923 12.2248C26.0389 12.2248 24.5373 10.7148 24.5373 8.84759C24.5373 6.9737 26.0389 5.44969 27.8923 5.44969Z" fill="url(#paint0_linear_1_205)"/>
<path d="M58.0383 18.9999V26.8938C58.0383 33.0138 52.8199 38.1649 46.8691 38.1649H29.011C24.1194 38.1649 20.0715 42.3276 20.0715 47.1983V64.1257C20.0715 68.9433 24.2849 71.777 29.011 73.1592C34.6705 74.8138 40.0976 75.1128 46.8691 73.1592C51.3702 71.8634 55.8086 69.2556 55.8086 64.1257V57.3506H37.9505V55.0922H55.8086H64.7481C69.9442 55.0922 71.8805 51.4885 73.6876 46.0795C75.5542 40.511 75.4748 35.156 73.6876 28.0126C72.4034 22.8694 69.9508 18.9999 64.7481 18.9999H58.0383ZM47.9944 61.8673C49.8478 61.8673 51.3493 63.3773 51.3493 65.2445C51.3493 67.1184 49.8478 68.6424 47.9944 68.6424C46.1476 68.6424 44.6395 67.1184 44.6395 65.2445C44.6395 63.3773 46.1476 61.8673 47.9944 61.8673Z" fill="url(#paint1_linear_1_205)"/>
</g>
<path d="M18.17 104.77C18.17 105.33 18.035 105.855 17.765 106.345C17.505 106.835 17.09 107.23 16.52 107.53C15.96 107.83 15.25 107.98 14.39 107.98H12.635V112H10.535V101.53H14.39C15.2 101.53 15.89 101.67 16.46 101.95C17.03 102.23 17.455 102.615 17.735 103.105C18.025 103.595 18.17 104.15 18.17 104.77ZM14.3 106.285C14.88 106.285 15.31 106.155 15.59 105.895C15.87 105.625 16.01 105.25 16.01 104.77C16.01 103.75 15.44 103.24 14.3 103.24H12.635V106.285H14.3ZM24.941 103.57C25.571 103.57 26.131 103.71 26.621 103.99C27.111 104.26 27.491 104.665 27.761 105.205C28.041 105.735 28.181 106.375 28.181 107.125V112H26.081V107.41C26.081 106.75 25.916 106.245 25.586 105.895C25.256 105.535 24.806 105.355 24.236 105.355C23.656 105.355 23.196 105.535 22.856 105.895C22.526 106.245 22.361 106.75 22.361 107.41V112H20.261V100.9H22.361V104.725C22.631 104.365 22.991 104.085 23.441 103.885C23.891 103.675 24.391 103.57 24.941 103.57ZM38.728 103.69L33.583 115.93H31.348L33.148 111.79L29.818 103.69H32.173L34.318 109.495L36.493 103.69H38.728ZM42.905 105.415V109.435C42.905 109.715 42.97 109.92 43.1 110.05C43.24 110.17 43.47 110.23 43.79 110.23H44.765V112H43.445C41.675 112 40.79 111.14 40.79 109.42V105.415H39.8V103.69H40.79V101.635H42.905V103.69H44.765V105.415H42.905ZM50.5654 112.135C49.7654 112.135 49.0454 111.96 48.4054 111.61C47.7654 111.25 47.2604 110.745 46.8904 110.095C46.5304 109.445 46.3504 108.695 46.3504 107.845C46.3504 106.995 46.5354 106.245 46.9054 105.595C47.2854 104.945 47.8004 104.445 48.4504 104.095C49.1004 103.735 49.8254 103.555 50.6254 103.555C51.4254 103.555 52.1504 103.735 52.8004 104.095C53.4504 104.445 53.9604 104.945 54.3304 105.595C54.7104 106.245 54.9004 106.995 54.9004 107.845C54.9004 108.695 54.7054 109.445 54.3154 110.095C53.9354 110.745 53.4154 111.25 52.7554 111.61C52.1054 111.96 51.3754 112.135 50.5654 112.135ZM50.5654 110.305C50.9454 110.305 51.3004 110.215 51.6304 110.035C51.9704 109.845 52.2404 109.565 52.4404 109.195C52.6404 108.825 52.7404 108.375 52.7404 107.845C52.7404 107.055 52.5304 106.45 52.1104 106.03C51.7004 105.6 51.1954 105.385 50.5954 105.385C49.9954 105.385 49.4904 105.6 49.0804 106.03C48.6804 106.45 48.4804 107.055 48.4804 107.845C48.4804 108.635 48.6754 109.245 49.0654 109.675C49.4654 110.095 49.9654 110.305 50.5654 110.305ZM61.6459 103.57C62.6359 103.57 63.4359 103.885 64.0459 104.515C64.6559 105.135 64.9609 106.005 64.9609 107.125V112H62.8609V107.41C62.8609 106.75 62.6959 106.245 62.3659 105.895C62.0359 105.535 61.5859 105.355 61.0159 105.355C60.4359 105.355 59.9759 105.535 59.6359 105.895C59.3059 106.245 59.1409 106.75 59.1409 107.41V112H57.0409V103.69H59.1409V104.725C59.4209 104.365 59.7759 104.085 60.2059 103.885C60.6459 103.675 61.1259 103.57 61.6459 103.57Z" fill="black"/>
<defs>
<linearGradient id="paint0_linear_1_205" x1="0.940429" y1="-1.92378e-07" x2="41.9685" y2="35.1624" gradientUnits="userSpaceOnUse">
<stop stop-color="#5A9FD4"/>
<stop offset="1" stop-color="#306998"/>
</linearGradient>
<linearGradient id="paint1_linear_1_205" x1="47.5647" y1="64.6749" x2="32.8861" y2="43.9877" gradientUnits="userSpaceOnUse">
<stop stop-color="#FFD43B"/>
<stop offset="1" stop-color="#FFE873"/>
</linearGradient>
<clipPath id="clip0_1_205">
<rect width="75" height="75" fill="white" transform="translate(0.5)"/>
</clipPath>
</defs>
</svg>
